<svg width="30" height="30" viewBox="0 0 30 30" fill="none" xmlns="http://www.w3.org/2000/svg">
<g id="ph:x">
<path id="Vector" d="M24.1008 22.7738C24.1879 22.8609 24.257 22.9643 24.3042 23.0781C24.3513 23.1919 24.3756 23.3139 24.3756 23.437C24.3756 23.5602 24.3513 23.6822 24.3042 23.796C24.257 23.9098 24.1879 24.0132 24.1008 24.1003C24.0137 24.1874 23.9103 24.2565 23.7965 24.3037C23.6827 24.3508 23.5607 24.3751 23.4375 24.3751C23.3144 24.3751 23.1924 24.3508 23.0786 24.3037C22.9648 24.2565 22.8614 24.1874 22.7743 24.1003L15 16.3249L7.22581 24.1003C7.0499 24.2762 6.81131 24.3751 6.56253 24.3751C6.31375 24.3751 6.07516 24.2762 5.89925 24.1003C5.72334 23.9244 5.62451 23.6858 5.62451 23.437C5.62451 23.1883 5.72334 22.9497 5.89925 22.7738L13.6746 14.9995L5.89925 7.22533C5.72334 7.04941 5.62451 6.81082 5.62451 6.56204C5.62451 6.31327 5.72334 6.07468 5.89925 5.89876C6.07516 5.72285 6.31375 5.62402 6.56253 5.62402C6.81131 5.62402 7.0499 5.72285 7.22581 5.89876L15 13.6742L22.7743 5.89876C22.9502 5.72285 23.1888 5.62402 23.4375 5.62402C23.6863 5.62402 23.9249 5.72285 24.1008 5.89876C24.2767 6.07468 24.3756 6.31327 24.3756 6.56204C24.3756 6.81082 24.2767 7.04941 24.1008 7.22533L16.3254 14.9995L24.1008 22.7738Z" fill="#333333"/>
</g>
</svg>
