<svg width="30" height="30" viewBox="0 0 30 30" fill="none" xmlns="http://www.w3.org/2000/svg">
<g id="iconamoon:delivery-free-fill">
<rect id="Rectangle 136" x="4" y="11" width="24" height="13" rx="4" fill="#D9D9D9" stroke="#D9D9D9" stroke-width="2"/>
<g id="Group 155">
<path id="Ellipse 11" d="M13.5267 7.52687C12.2249 8.8286 10.7373 8.71073 10.1538 8.12719C9.57027 7.54366 9.45241 6.05608 10.7541 4.75435C12.0559 3.45262 13.5434 3.57049 14.127 4.15403C14.7105 4.73756 14.8284 6.22514 13.5267 7.52687Z" stroke="#FF6E83" stroke-width="2.5"/>
<path id="Ellipse 12" d="M5.75411 7.52687C7.05584 8.8286 8.54341 8.71073 9.12695 8.12719C9.71049 7.54366 9.82836 6.05608 8.52662 4.75435C7.22489 3.45262 5.73732 3.57049 5.15378 4.15403C4.57024 4.73756 4.45238 6.22514 5.75411 7.52687Z" stroke="#FF6E83" stroke-width="2.5"/>
</g>
<g id="Rectangle 135">
<mask id="path-4-inside-1_754_473" fill="white">
<rect x="1" y="7" width="17" height="18" rx="2"/>
</mask>
<rect x="1" y="7" width="17" height="18" rx="2" fill="#354D8B" stroke="#354D8B" stroke-width="6" mask="url(#path-4-inside-1_754_473)"/>
</g>
<circle id="Ellipse 13" cx="7.5" cy="24.5" r="2.5" fill="white" stroke="#919191" stroke-width="2"/>
<circle id="Ellipse 14" cx="22.5" cy="24.5" r="2.5" fill="white" stroke="#919191" stroke-width="2"/>
<path id="Rectangle 135_2" d="M22 13H25C26.1046 13 27 13.8954 27 15V16H22V13Z" fill="#666666"/>
</g>
</svg>
