<svg width="20" height="20" viewBox="0 0 20 20" fill="none" xmlns="http://www.w3.org/2000/svg">
<g id="healthicons:v">
<path id="Vector" fill-rule="evenodd" clip-rule="evenodd" d="M10.0001 15.8337C10.1645 15.8337 10.3253 15.7851 10.4622 15.6939C10.5991 15.6027 10.7059 15.473 10.7692 15.3212L14.9359 5.32122C15.021 5.11723 15.0216 4.88778 14.9375 4.68337C14.8534 4.47896 14.6916 4.31631 14.4876 4.23122C14.2836 4.14613 14.0541 4.14556 13.8497 4.22964C13.6453 4.31372 13.4827 4.47556 13.3976 4.67956L10.0001 12.8337L6.60256 4.67956C6.51747 4.47556 6.35483 4.31372 6.15042 4.22964C5.946 4.14556 5.71656 4.14613 5.51256 4.23122C5.30857 4.31631 5.14673 4.47896 5.06265 4.68337C4.97857 4.88778 4.97914 5.11723 5.06423 5.32122L9.2309 15.3212C9.29422 15.473 9.40104 15.6027 9.53792 15.6939C9.67479 15.7851 9.83559 15.8337 10.0001 15.8337Z" fill="white"/>
</g>
</svg>
