<svg width="34" height="27" viewBox="0 0 34 27" fill="none" xmlns="http://www.w3.org/2000/svg">
<g id="Group 156">
<path id="Vector" d="M31.1667 7.46416V22.3925C31.1667 22.9056 30.7417 23.3255 30.2222 23.3255H18.8889C18.8889 20.748 16.7757 18.6604 14.1667 18.6604H10.3889C7.77986 18.6604 5.66667 20.748 5.66667 23.3255H3.77778C3.25833 23.3255 2.83333 22.9056 2.83333 22.3925V7.46416H31.1667ZM3.77778 0C1.6941 0 0 1.6736 0 3.73208V22.3925C0 24.4509 1.6941 26.1246 3.77778 26.1246H30.2222C32.3059 26.1246 34 24.4509 34 22.3925V3.73208C34 1.6736 32.3059 0 30.2222 0H3.77778ZM16.0556 13.0623C16.0556 12.0725 15.6575 11.1232 14.9491 10.4233C14.2406 9.7234 13.2797 9.3302 12.2778 9.3302C11.2758 9.3302 10.315 9.7234 9.60649 10.4233C8.89802 11.1232 8.5 12.0725 8.5 13.0623C8.5 14.0521 8.89802 15.0014 9.60649 15.7013C10.315 16.4012 11.2758 16.7944 12.2778 16.7944C13.2797 16.7944 14.2406 16.4012 14.9491 15.7013C15.6575 15.0014 16.0556 14.0521 16.0556 13.0623ZM22.1944 10.2632C21.4094 10.2632 20.7778 10.8872 20.7778 11.6627C20.7778 12.4383 21.4094 13.0623 22.1944 13.0623H26.9167C27.7017 13.0623 28.3333 12.4383 28.3333 11.6627C28.3333 10.8872 27.7017 10.2632 26.9167 10.2632H22.1944ZM22.1944 15.8613C21.4094 15.8613 20.7778 16.4853 20.7778 17.2609C20.7778 18.0364 21.4094 18.6604 22.1944 18.6604H26.9167C27.7017 18.6604 28.3333 18.0364 28.3333 17.2609C28.3333 16.4853 27.7017 15.8613 26.9167 15.8613H22.1944Z" fill="#C7C7C7"/>
<g id="Group">
<path id="Vector_2" d="M15.5 18.5205H8.5C6.567 18.5205 5 19.9691 5 21.7561V23.3738H12H19V21.7561C19 19.9691 17.433 18.5205 15.5 18.5205Z" fill="#4AA4D3"/>
<path id="Vector_3" d="M12.0002 17.0254C14.2093 17.0254 16.0002 15.2345 16.0002 13.0254C16.0002 10.8163 14.2093 9.02539 12.0002 9.02539C9.79104 9.02539 8.00018 10.8163 8.00018 13.0254C8.00018 15.2345 9.79104 17.0254 12.0002 17.0254Z" fill="#4AA4D3"/>
</g>
</g>
</svg>
