<svg width="22" height="22" viewBox="0 0 22 22" fill="none" xmlns="http://www.w3.org/2000/svg">
<g id="Group 145">
<path id="Vector" d="M15.9138 5.91375C16.0913 5.91375 16.2396 5.85417 16.3587 5.735C16.4779 5.61583 16.5379 5.46708 16.5387 5.28875C16.5387 5.11042 16.4787 4.96167 16.3587 4.8425C16.2396 4.72333 16.0913 4.66375 15.9138 4.66375H4.08625C3.90875 4.66375 3.76042 4.72333 3.64125 4.8425C3.52125 4.96167 3.46125 5.11042 3.46125 5.28875C3.46125 5.46625 3.52125 5.615 3.64125 5.735C3.76125 5.855 3.90958 5.91458 4.08625 5.91375H15.9138ZM2.01875 0H17.9812C18.5396 0 19.0158 0.196667 19.41 0.59C19.8033 0.983333 20 1.45958 20 2.01875V9.45C19.2567 9.20583 18.495 9.08042 17.715 9.07375C16.9358 9.06625 16.1671 9.16667 15.4087 9.375H4.08625C3.90875 9.375 3.76042 9.43458 3.64125 9.55375C3.52125 9.67375 3.46125 9.8225 3.46125 10C3.46125 10.1775 3.52125 10.3263 3.64125 10.4463C3.76042 10.5654 3.90875 10.625 4.08625 10.625H12.6012C11.9746 11.0592 11.4221 11.5687 10.9437 12.1537C10.4654 12.7387 10.0717 13.3829 9.7625 14.0863H4.0875C3.90917 14.0863 3.76042 14.1463 3.64125 14.2663C3.52208 14.3863 3.46208 14.5346 3.46125 14.7113C3.46125 14.8896 3.52125 15.0383 3.64125 15.1575C3.76042 15.2767 3.90875 15.3362 4.08625 15.3362H9.34875C9.25875 15.6729 9.18875 16.0125 9.13875 16.355C9.08875 16.6975 9.06333 17.055 9.0625 17.4275C9.0625 17.9983 9.12208 18.5646 9.24125 19.1263C9.36125 19.6879 9.54041 20.2292 9.77875 20.75C9.75458 20.755 9.72958 20.7513 9.70375 20.7388C9.67708 20.7271 9.65417 20.7117 9.635 20.6925L8.61 19.98C8.5175 19.92 8.42 19.89 8.3175 19.89C8.215 19.89 8.11708 19.9204 8.02375 19.9813L6.9275 20.74C6.835 20.8008 6.7375 20.8313 6.635 20.8313C6.5325 20.8313 6.43458 20.8008 6.34125 20.74L5.245 19.9813C5.1525 19.9204 5.055 19.89 4.9525 19.89C4.84917 19.89 4.75125 19.9204 4.65875 19.9813L3.5625 20.74C3.46917 20.8008 3.37125 20.8313 3.26875 20.8313C3.16625 20.8313 3.06875 20.8008 2.97625 20.74L1.88 19.9813C1.78667 19.9204 1.68875 19.89 1.58625 19.89C1.48375 19.89 1.38625 19.9204 1.29375 19.9813L0.3175 20.74C0.269167 20.7725 0.163333 20.8267 0 20.9025V2.0175C0 1.45917 0.196667 0.982917 0.59 0.58875C0.983333 0.19625 1.45958 0 2.01875 0Z" fill="white"/>
<path id="Vector_2" d="M16.2138 17.59L15.3938 16.77C15.2871 16.6617 15.1596 16.6075 15.0113 16.6075C14.8629 16.6075 14.735 16.6617 14.6275 16.77C14.52 16.8783 14.4663 17.005 14.4663 17.15C14.4663 17.2958 14.52 17.4221 14.6275 17.5288L15.7025 18.6038C15.8575 18.7596 16.0321 18.8375 16.2262 18.8375C16.4196 18.8375 16.5942 18.7596 16.75 18.6038L19.3725 16.02C19.48 15.9117 19.5379 15.7879 19.5463 15.6488C19.5546 15.5079 19.4967 15.3758 19.3725 15.2525C19.265 15.145 19.1333 15.0912 18.9775 15.0912C18.8217 15.0912 18.6896 15.1454 18.5812 15.2538L16.2138 17.59ZM17 22C15.6075 22 14.4258 21.515 13.455 20.545C12.4842 19.575 11.9992 18.3933 12 17C12 15.6083 12.485 14.4271 13.455 13.4563C14.425 12.4854 15.6067 12 17 12C18.3925 12 19.5742 12.4854 20.545 13.4563C21.5158 14.4271 22.0008 15.6083 22 17C22 18.3933 21.515 19.575 20.545 20.545C19.5733 21.515 18.3917 22 17 22Z" fill="#84E69F"/>
</g>
</svg>
