<svg width="31" height="28" viewBox="0 0 31 28" fill="none" xmlns="http://www.w3.org/2000/svg">
<g id="Group 148">
<g id="Group 147">
<g id="Group 146">
<path id="Vector" d="M6.01952 24.0781L2.5583 27.5393C2.08175 28.0158 1.53598 28.1227 0.920989 27.8598C0.305995 27.597 -0.0010008 27.1265 2.45094e-06 26.4483V3.00976C2.45094e-06 2.18208 0.294959 1.47378 0.884872 0.884869C1.47478 0.29596 2.18308 0.00100325 3.00976 0H27.0878C27.9155 0 28.6243 0.294957 29.2142 0.884869C29.8041 1.47478 30.0986 2.18308 30.0976 3.00976V21.0683C30.0976 21.896 29.8031 22.6048 29.2142 23.1947C28.6253 23.7846 27.9165 24.0791 27.0878 24.0781H6.01952ZM4.74037 21.0683H27.0878V3.00976H3.00976V22.7613L4.74037 21.0683Z" fill="white"/>
</g>
<rect id="Rectangle 134" x="2.66318" y="1.90625" width="24.7714" height="20.9895" fill="white"/>
</g>
<path id="Vector_2" d="M7.15562 17.8892H9.6834C9.89081 17.8892 10.092 17.8503 10.287 17.7725C10.4819 17.6948 10.6567 17.5781 10.8112 17.4225L18.1223 10.1114C18.3556 9.8781 18.5309 9.6121 18.6481 9.31344C18.7652 9.01477 18.8233 8.72336 18.8223 8.43921C18.8223 8.15403 18.7575 7.87558 18.6278 7.60388C18.4982 7.33218 18.3297 7.07914 18.1223 6.84477L16.7223 5.36699C16.4889 5.13366 16.2297 4.95892 15.9445 4.84277C15.6593 4.72662 15.3612 4.66803 15.0501 4.66699C14.7649 4.66699 14.4735 4.72558 14.1758 4.84277C13.8782 4.95995 13.6122 5.1347 13.3778 5.36699L6.06673 12.6781C5.91118 12.8337 5.79451 13.0089 5.71673 13.2039C5.63896 13.3988 5.60007 13.5995 5.60007 13.8059V16.3337C5.60007 16.7744 5.7494 17.1441 6.04807 17.4428C6.34673 17.7414 6.71592 17.8902 7.15562 17.8892ZM7.9334 15.5559V14.0781L11.8612 10.1503L12.639 10.8503L13.339 11.6281L9.41118 15.5559H7.9334ZM12.639 10.8503L13.339 11.6281L11.8612 10.1503L12.639 10.8503ZM13.6501 17.8892H22.7112C23.1519 17.8892 23.5216 17.7399 23.8203 17.4412C24.1189 17.1425 24.2678 16.7734 24.2667 16.3337C24.2667 15.8929 24.1174 15.5237 23.8187 15.2261C23.5201 14.9285 23.1509 14.7791 22.7112 14.7781H16.7612L13.6501 17.8892Z" fill="#F8D65F"/>
</g>
</svg>
