<svg width="42" height="42" viewBox="0 0 42 42" fill="none" xmlns="http://www.w3.org/2000/svg">
<path d="M21 28C23.8995 28 26.25 25.6495 26.25 22.75C26.25 19.8505 23.8995 17.5 21 17.5C18.1005 17.5 15.75 19.8505 15.75 22.75C15.75 25.6495 18.1005 28 21 28Z" stroke="#666666" stroke-width="1.5"/>
<path d="M17.1115 36.7501H24.8885C30.3503 36.7501 33.082 36.7501 35.0437 35.4638C35.8902 34.909 36.6192 34.1931 37.1892 33.3568C38.5 31.4318 38.5 28.7491 38.5 23.3871C38.5 18.0233 38.5 15.3423 37.1892 13.4173C36.6193 12.581 35.8902 11.8651 35.0437 11.3103C33.7837 10.4826 32.2052 10.1868 29.7885 10.0818C28.6352 10.0818 27.643 9.22433 27.4172 8.11308C27.2447 7.2991 26.7965 6.56964 26.1482 6.048C25.5 5.52635 24.6915 5.2445 23.8595 5.25008H18.1405C16.4115 5.25008 14.9223 6.44883 14.5828 8.11308C14.357 9.22433 13.3648 10.0818 12.2115 10.0818C9.7965 10.1868 8.218 10.4843 6.95625 11.3103C6.11033 11.8652 5.3819 12.5811 4.8125 13.4173C3.5 15.3423 3.5 18.0233 3.5 23.3871C3.5 28.7491 3.5 31.4301 4.81075 33.3568C5.37775 34.1898 6.10575 34.9056 6.95625 35.4638C8.918 36.7501 11.6497 36.7501 17.1115 36.7501Z" stroke="#666666" stroke-width="1.5"/>
<path d="M33.25 17.5H31.5" stroke="#666666" stroke-width="1.5" stroke-linecap="round"/>
</svg>
