<svg width="19" height="18" viewBox="0 0 19 18" fill="none" xmlns="http://www.w3.org/2000/svg">
<rect width="19" height="18" fill="#F5F5F5"/>
<g id="&#236;&#138;&#164;&#237;&#134;&#160;&#236;&#150;&#180; &#236;&#131;&#129;&#237;&#146;&#136; &#235;&#170;&#169;&#235;&#161;&#157; &#237;&#142;&#152;&#236;&#157;&#180;&#236;&#167;&#128;" clip-path="url(#clip0_0_1)">
<rect width="1920" height="3000" transform="translate(-319 -905)" fill="white"/>
<g id="&#236;&#131;&#129;&#237;&#146;&#136;1">
</g>
<path id="Vector" d="M9.95012 14.9214C9.64829 14.7684 9.2929 14.7684 8.99106 14.9214L5.12182 16.8825C4.30236 17.2978 3.37969 16.5476 3.6019 15.6466L4.5066 11.9784C4.5931 11.6276 4.50192 11.2562 4.26333 10.9875L1.27685 7.62382C0.681551 6.95335 1.10442 5.88203 1.99169 5.81284L6.15789 5.48799C6.54761 5.4576 6.89015 5.21468 7.05189 4.85398L8.49431 1.63721C8.8753 0.787597 10.0659 0.787597 10.4469 1.63721L11.8893 4.85398C12.051 5.21468 12.3936 5.4576 12.7833 5.48799L16.9495 5.81284C17.8367 5.88203 18.2597 6.95335 17.6643 7.62382L14.6778 10.9875C14.4393 11.2562 14.3481 11.6276 14.4346 11.9784L15.3393 15.6466C15.5615 16.5476 14.6388 17.2978 13.8194 16.8825L9.95012 14.9214Z" fill="#354D8B" stroke="#354D8B" stroke-width="1.5" stroke-linecap="round" stroke-linejoin="round"/>
</g>
<defs>
<clipPath id="clip0_0_1">
<rect width="1920" height="3000" fill="white" transform="translate(-319 -905)"/>
</clipPath>
</defs>
</svg>
